<?xml version="1.0" encoding="UTF-8"?>
<svg id="_117" data-name="117" xmlns="http://www.w3.org/2000/svg" viewBox="0 0 110.32 70.9">
  <defs>
    <style>
      .cls-1 {
        fill: #dd0534;
      }
    </style>
  </defs>
  <path class="cls-1" d="m5.61,0h99.1c1.53,0,2.92.63,3.95,1.66,1.03,1.03,1.66,2.42,1.66,3.95v59.69c0,1.52-.63,2.91-1.66,3.95-1.03,1.03-2.42,1.66-3.95,1.66H5.61c-1.52,0-2.91-.63-3.95-1.66-1.03-1.03-1.66-2.42-1.66-3.95V5.6c0-1.52.63-2.91,1.66-3.95,1.03-1.03,2.42-1.66,3.95-1.66h0Zm99.1,2.15H5.61c-.94,0-1.8.4-2.42,1.03-.63.63-1.03,1.48-1.03,2.42v59.69c0,.94.4,1.79,1.03,2.42.63.63,1.48,1.03,2.42,1.03h99.1c.94,0,1.79-.4,2.42-1.03.63-.63,1.03-1.48,1.03-2.42V5.6c0-.94-.4-1.79-1.03-2.42-.63-.63-1.48-1.03-2.42-1.03h0Z"/>
  <path class="cls-1" d="m41.71,54.93H11.66c-.63,0-1.08-.49-1.08-1.07v-.05c0-8.34,4.17-13.72,9.51-16.1,2.06-.94,4.31-1.39,6.59-1.39s4.49.45,6.55,1.39l.13.05c5.29,2.38,9.42,7.76,9.42,16.1,0,.58-.49,1.07-1.08,1.07h0Zm-28.97-2.15h27.85c-.36-6.73-3.77-11.08-8.12-13.05l-.09-.04c-1.79-.81-3.77-1.21-5.7-1.21s-3.95.4-5.74,1.21c-4.4,1.93-7.85,6.32-8.21,13.09h0ZM26.68,15.96c2.65,0,5.11,1.08,6.86,2.83,1.75,1.79,2.83,4.22,2.83,6.91s-1.08,5.07-2.83,6.86c-1.79,1.75-4.22,2.83-6.86,2.83s-5.11-1.08-6.91-2.83c-1.75-1.79-2.83-4.21-2.83-6.86s1.08-5.11,2.83-6.91c1.79-1.75,4.22-2.83,6.91-2.83h0Zm5.34,4.35c-1.39-1.35-3.27-2.2-5.34-2.2s-3.99.85-5.38,2.2c-1.35,1.39-2.2,3.27-2.2,5.38s.85,3.95,2.2,5.34c1.39,1.35,3.27,2.2,5.38,2.2s3.95-.85,5.34-2.2c1.35-1.39,2.2-3.27,2.2-5.34s-.85-3.99-2.2-5.38h0Z"/>
  <path class="cls-1" d="m53.32,24.26c-.58,0-1.08-.49-1.08-1.07,0-.63.5-1.12,1.08-1.12h45.38c.58,0,1.08.49,1.08,1.12,0,.58-.49,1.07-1.08,1.07h-45.38Z"/>
  <path class="cls-1" d="m53.32,37.98c-.58,0-1.08-.49-1.08-1.08,0-.63.5-1.08,1.08-1.08h32.2c.58,0,1.08.45,1.08,1.08,0,.58-.49,1.08-1.08,1.08h-32.2Z"/>
  <path class="cls-1" d="m53.32,48.79c-.58,0-1.08-.45-1.08-1.08,0-.58.5-1.08,1.08-1.08h19.55c.58,0,1.07.49,1.07,1.08,0,.63-.49,1.08-1.07,1.08h-19.55Z"/>
</svg>