<?xml version="1.0" encoding="UTF-8"?>
<svg id="_117" xmlns="http://www.w3.org/2000/svg" version="1.1" viewBox="0 0 110.3 70.9">
  <!-- Generator: Adobe Illustrator 29.0.1, SVG Export Plug-In . SVG Version: 2.1.0 Build 192)  -->
  <defs>
    <style>
      .st0 {
        fill: #dd0534;
      }
    </style>
  </defs>
  <path class="st0" d="M44.4,13.3c-.9,0-1.7-.3-2.4-.9-.7-.6-1.1-1.5-1.2-2.4,0-.9.3-1.8.9-2.5l5.7-6.3c.7-.7,1.6-1.2,2.6-1.2s1.7.3,2.4.9c1.4,1.3,1.6,3.5.2,5l-5.7,6.3c-.7.7-1.6,1.2-2.6,1.2ZM50.1,1.2c-.7,0-1.3.3-1.8.8l-5.7,6.3c-.4.5-.6,1.1-.6,1.7,0,.6.3,1.2.8,1.6.4.4,1,.6,1.6.6s1.3-.3,1.8-.8l5.7-6.3c.9-1,.8-2.5-.2-3.4-.4-.4-1-.6-1.6-.6Z"/>
  <path class="st0" d="M80.9,69.6H29.4c-2.9,0-5.2-2.3-5.2-5.2l-5.1-31h-.9c-.8,0-1.5-.7-1.5-1.5v-7.8c0-.9.7-1.5,1.5-1.5h11.1l11.5-12.8c0-.9.3-1.7.9-2.4l5.7-6.3c.7-.7,1.6-1.2,2.6-1.2s1.7.3,2.4.9c1.4,1.3,1.6,3.5.2,5l-5.7,6.3c-.7.7-1.6,1.2-2.6,1.2l-8.4,9.2h37.9l-8.4-9.2c-1,0-1.9-.4-2.6-1.2l-5.7-6.3c-1.3-1.4-1.2-3.7.3-5,.7-.6,1.5-.9,2.4-.9s2,.4,2.6,1.2l5.7,6.3c.6.7.9,1.5.9,2.4l11.5,12.8h11.5c.8,0,1.5.7,1.5,1.5v7.8c0,.8-.7,1.5-1.5,1.5h-.9l-5.1,31c0,2.8-2.3,5.2-5.2,5.2ZM20.2,32.9l5.2,31.4h0c0,2.3,1.8,4.1,4,4.1h51.4c2.2,0,4-1.8,4-4h0c0,0,5.2-31.4,5.2-31.4,0,0,0,0,0,0v-.6s2,0,2,0c.2,0,.4-.2.4-.4v-7.8c0-.2-.2-.4-.4-.4h-12.1l-12.2-13.5v-.2c0-.7-.1-1.3-.6-1.8l-5.7-6.3c-.5-.5-1.1-.8-1.8-.8s-1.2.2-1.6.6c-1,.9-1,2.4-.2,3.4l5.7,6.3c.5.5,1.2.8,2,.8h.3s10.5,11.6,10.5,11.6h-43.1l10.5-11.6h.3c.7,0,1.5-.2,2-.7l5.7-6.3c.9-1,.8-2.5-.2-3.4-.4-.4-1-.6-1.6-.6s-1.3.3-1.8.8l-5.7,6.3c-.4.5-.7,1.1-.6,1.8v.2s-12.2,13.5-12.2,13.5h-11.6c-.2,0-.4.2-.4.4v7.8c0,.2.2.4.4.4h2v.6s0,0,0,0Z"/>
  <path class="st0" d="M28.1,31.6c-1,0-1.9-.4-2.6-1-1.6-1.5-1.7-4-.3-5.6.8-.9,1.9-1.3,3-1.3l12.6-13.9c0-.9.3-1.7.9-2.4l5.7-6.3c.7-.7,1.6-1.2,2.6-1.2s1.7.3,2.4.9c1.4,1.3,1.6,3.5.2,5l-5.7,6.3c-.7.7-1.6,1.2-2.6,1.2l-12.4,13.7c.2,1.2-.1,2.4-1,3.3-.7.8-1.8,1.3-2.9,1.3ZM28.1,24.9c-.8,0-1.5.3-2.1.9-1,1.1-.9,2.9.2,3.9.5.5,1.2.7,1.9.7s1.5-.3,2.1-.9c.6-.7.9-1.6.6-2.6v-.3c0,0,13.1-14.5,13.1-14.5h.3c.7,0,1.5-.2,2-.7l5.7-6.3c.9-1,.8-2.5-.2-3.4-.4-.4-1-.6-1.6-.6s-1.3.3-1.8.8l-5.7,6.3c-.4.5-.7,1.1-.6,1.8v.2s-13.3,14.7-13.3,14.7h-.3c-.1,0-.2,0-.3,0Z"/>
  <path class="st0" d="M81.8,31.6c-1.1,0-2.2-.5-2.9-1.3-.8-.9-1.2-2.1-1-3.3l-12.4-13.7c-1,0-1.9-.4-2.6-1.2l-5.7-6.3c-1.3-1.4-1.2-3.7.3-5,.7-.6,1.5-.9,2.4-.9s2,.4,2.6,1.2l5.7,6.3c.6.7.9,1.5.9,2.4l12.6,13.9c1.2,0,2.3.4,3,1.3,1.5,1.6,1.3,4.1-.3,5.6-.7.7-1.7,1-2.6,1ZM66,12.2l13.2,14.5v.3c-.3.9,0,1.9.6,2.6.5.6,1.3.9,2.1.9s1.4-.3,1.9-.7c1.1-1,1.2-2.8.2-3.9-.6-.7-1.5-1-2.4-.9h-.3s-13.3-14.7-13.3-14.7v-.2c0-.7-.1-1.3-.6-1.8l-5.7-6.3c-.5-.5-1.1-.8-1.8-.8s-1.2.2-1.6.6c-1,.9-1,2.4-.2,3.4l5.7,6.3c.5.5,1.2.8,2,.8h.3Z"/>
  <path class="st0" d="M65.5,13.3h0c-1,0-2-.4-2.6-1.2l-5.7-6.3c-1.3-1.4-1.2-3.7.3-5,.7-.6,1.5-.9,2.4-.9s2,.4,2.6,1.2l5.7,6.3c.6.7,1,1.6.9,2.5,0,.9-.5,1.8-1.2,2.4-.7.6-1.5.9-2.4.9ZM59.8,1.2c-.6,0-1.2.2-1.6.6-1,.9-1,2.4-.2,3.4l5.7,6.3c.4.5,1.1.8,1.8.8h0c.6,0,1.2-.2,1.6-.6.5-.4.7-1,.8-1.6,0-.6-.2-1.2-.6-1.7l-5.7-6.3c-.5-.5-1.1-.8-1.8-.8Z"/>
  <rect class="st0" x="19.6" y="32.3" width="71.3" height="1.2"/>
  <path class="st0" d="M81.6,46.4H28.5c-1.6,0-2.9-1.3-2.9-2.9s1.3-2.9,2.9-2.9h53.2c1.6,0,2.9,1.3,2.9,2.9s-1.3,2.9-2.9,2.9ZM28.5,41.8c-1,0-1.7.8-1.7,1.7s.8,1.7,1.7,1.7h53.2c1,0,1.7-.8,1.7-1.7s-.8-1.7-1.7-1.7H28.5Z"/>
  <path class="st0" d="M79.6,55H30.5c-1.5,0-2.7-1.2-2.7-2.7s1.2-2.7,2.7-2.7h49c1.5,0,2.7,1.2,2.7,2.7s-1.2,2.7-2.7,2.7ZM30.5,50.8c-.9,0-1.6.7-1.6,1.6s.7,1.6,1.6,1.6h49c.9,0,1.6-.7,1.6-1.6s-.7-1.6-1.6-1.6H30.5Z"/>
  <path class="st0" d="M77.5,62.7h-44.8c-1.4,0-2.5-1.1-2.5-2.5s1.1-2.5,2.5-2.5h44.8c1.4,0,2.5,1.1,2.5,2.5s-1.1,2.5-2.5,2.5ZM32.6,58.8c-.8,0-1.4.6-1.4,1.4s.6,1.4,1.4,1.4h44.8c.8,0,1.4-.6,1.4-1.4s-.6-1.4-1.4-1.4h-44.8Z"/>
</svg>