<?xml version="1.0" encoding="UTF-8"?>
<svg id="_117" data-name="117" xmlns="http://www.w3.org/2000/svg" viewBox="0 0 134.84 80.06">
  <defs>
    <style>
      .cls-1 {
        fill: #dd0534;
      }
    </style>
  </defs>
  <path class="cls-1" d="m117.46,40.64l-7.86-14.15c-1.85-3.34-5.38-5.42-9.21-5.42h-16.11V0H0v63.21h2.11v8.43h21.28c.98,4.8,5.24,8.43,10.32,8.43s9.34-3.62,10.32-8.43h19.17v2.11h21.07v-2.11h19.17c.98,4.8,5.23,8.43,10.32,8.43s9.34-3.62,10.32-8.43h8.18l2.5-10.02.06-10.11-17.38-10.86Zm13.17,20.2l-1.65,6.58h-4.89c-.98-4.8-5.24-8.43-10.32-8.43s-9.34,3.62-10.32,8.43h-10.75v-18.96h-4.21v18.96h-4.21V25.28h4.21v18.96h22.09l2.39-3.01,1.34,2.4,14.46,9.04h-6.56v4.21h8.43v3.95Zm-10.9,10.79c-.87,2.45-3.21,4.21-5.95,4.21s-5.08-1.76-5.95-4.21c-.23-.66-.37-1.37-.37-2.11s.13-1.45.37-2.11c.87-2.45,3.21-4.21,5.95-4.21s5.08,1.76,5.95,4.21c.23.66.37,1.37.37,2.11s-.13,1.45-.37,2.11Zm-80.06,0c-.87,2.45-3.21,4.21-5.95,4.21s-5.08-1.76-5.95-4.21c-.23-.66-.37-1.37-.37-2.11s.13-1.45.37-2.11c.87-2.45,3.21-4.21,5.95-4.21s5.08,1.76,5.95,4.21c.23.66.37,1.37.37,2.11s-.13,1.45-.37,2.11ZM4.21,4.21h75.85v54.78H4.21V4.21Zm2.11,58.99h18.98c-.92,1.23-1.6,2.65-1.91,4.21H6.32v-4.21Zm35.8,0h21.09v4.21h-19.17c-.32-1.56-.99-2.99-1.92-4.21Zm25.3,4.21v-4.21h12.64v6.32h-12.64v-2.11Zm38.49-38.89l4.84,8.71-2.21,2.79h-15.84v-14.75h7.68c2.29,0,4.41,1.25,5.52,3.25Z"/>
</svg>