<?xml version="1.0" encoding="UTF-8"?>
<svg id="_117" data-name="117" xmlns="http://www.w3.org/2000/svg" viewBox="0 0 122.81 73.91">
  <defs>
    <style>
      .cls-1 {
        fill: #dd0534;
      }
    </style>
  </defs>
  <g id="credit_cards" data-name="credit cards">
    <path class="cls-1" d="m116.16,73.91H18.8c-3.67,0-6.65-2.98-6.65-6.65V16.55c0-3.67,2.98-6.65,6.65-6.65h97.35c3.67,0,6.65,2.98,6.65,6.65v50.7c0,3.67-2.98,6.65-6.65,6.65ZM18.8,12.67c-2.14,0-3.89,1.74-3.89,3.89v50.7c0,2.14,1.74,3.89,3.89,3.89h97.35c2.14,0,3.89-1.74,3.89-3.89V16.55c0-2.14-1.74-3.89-3.89-3.89H18.8Z"/>
    <path class="cls-1" d="m42.48,63.23h-17.63c-.76,0-1.38-.62-1.38-1.38v-17.79c0-.76.62-1.38,1.38-1.38h17.63c.76,0,1.38.62,1.38,1.38v17.79c0,.76-.62,1.38-1.38,1.38Zm-16.25-2.77h14.86v-15.02h-14.86v15.02Z"/>
    <path class="cls-1" d="m121.43,23.89H13.53c-.76,0-1.38-.62-1.38-1.38s.62-1.38,1.38-1.38h107.89c.76,0,1.38.62,1.38,1.38s-.62,1.38-1.38,1.38Z"/>
    <path class="cls-1" d="m121.43,34.52H13.53c-.76,0-1.38-.62-1.38-1.38s.62-1.38,1.38-1.38h107.89c.76,0,1.38.62,1.38,1.38s-.62,1.38-1.38,1.38Z"/>
    <path class="cls-1" d="m1.38,62.51h-.01c-.76,0-1.38-.63-1.37-1.4L.55,7.8C.59,3.5,4.13,0,8.43,0h97.01c.76,0,1.38.62,1.38,1.38s-.62,1.38-1.38,1.38H8.43c-2.79,0-5.08,2.27-5.11,5.06l-.55,53.31c0,.76-.63,1.37-1.38,1.37Z"/>
  </g>
</svg>