<svg version="1.2" xmlns="http://www.w3.org/2000/svg" viewBox="0 0 40 40" width="40" height="40"><defs><clipPath clipPathUnits="userSpaceOnUse" id="cp1"><path d="m2.81 0.33h34.4v39.41h-34.4z"/></clipPath></defs><style>.a{fill:#222}</style><g clip-path="url(#cp1)"><path fill-rule="evenodd" class="a" d="m37.2 29.6c0 0.2-0.1 0.4-0.3 0.5l-16.6 9.5q-0.1 0.1-0.3 0.1-0.2 0-0.3-0.1l-16.6-9.5c-0.2-0.1-0.3-0.3-0.3-0.5v-19.1q0 0 0 0 0-0.3 0.3-0.5 0 0 0 0 0 0 0 0l5.9-3.4q0 0 0 0l10.7-6.1c0.2-0.2 0.4-0.2 0.6 0l16.6 9.5c0.2 0.1 0.3 0.3 0.3 0.5zm-1.3-0.3v-17.6l-4.2 2.4v3.8c0 0.2-0.1 0.4-0.3 0.5l-5.1 3q-0.2 0-0.3 0-0.2 0-0.3 0c-0.2-0.2-0.4-0.4-0.4-0.6v-3l-4.6 2.7v17.6zm-31.3-18.7l15.3 8.8 4.6-2.7-15.3-8.8zm5.9-3.3l15.2 8.8 4-2.3-15.3-8.8zm5.2-3l15.3 8.8 4.2-2.4-15.3-8.8zm-11.7 25l15.3 8.8v-17.6l-15.3-8.8zm22.6-12.2v2.7l3.8-2.2v-2.7zm2 8.4v5.6c0 0.2-0.2 0.4-0.4 0.5l-4.8 2.8q-0.2 0.1-0.3 0.1-0.2 0-0.3-0.1c-0.2-0.1-0.4-0.3-0.4-0.5v-5.6c0-0.3 0.2-0.5 0.4-0.6l4.8-2.8c0.2-0.1 0.5-0.1 0.6 0 0.2 0.1 0.4 0.4 0.4 0.6zm-1.3 5.2v-4.1l-3.6 2v4.2zm-17.5-0.7c-0.2 0.2-0.4 0.3-0.6 0.3q-0.2 0-0.3-0.1l-3.3-1.9c-0.3-0.1-0.4-0.5-0.3-0.8 0.2-0.3 0.6-0.4 0.9-0.3l3.3 1.9c0.3 0.2 0.4 0.6 0.3 0.9z"/></g></svg>