<svg version="1.2" xmlns="http://www.w3.org/2000/svg" viewBox="0 0 40 40" width="40" height="40"><defs><clipPath clipPathUnits="userSpaceOnUse" id="cp1"><path d="m0.27 3.33h39.44v34.07h-39.44z"/></clipPath></defs><style>.a{fill:#222}</style><g clip-path="url(#cp1)"><path fill-rule="evenodd" class="a" d="m19.5 25.6q0 0 0.1 0.1 0 0 0.1 0 0.1 0.1 0.1 0.1 0 0 0.1 0.1 0 0 0 0.1 0.1 0.1 0.1 0.1 0 0.1 0 0.2 0 0 0 0.1 0 0.1-0.1 0.1 0 0.1 0 0.1-0.1 0.1-0.1 0.1 0 0.1-0.1 0.1-0.1 0-0.1 0.1-0.1 0-0.1 0-0.1 0-0.2 0h-15.7q-0.2 0-0.4 0-0.1 0-0.3 0-0.1-0.1-0.3-0.1-0.1-0.1-0.3-0.1-0.1-0.1-0.3-0.2-0.1 0-0.3-0.1-0.1-0.1-0.2-0.2-0.1-0.1-0.3-0.2-0.1-0.2-0.2-0.3-0.1-0.1-0.2-0.2-0.1-0.2-0.1-0.3-0.1-0.2-0.2-0.3 0-0.2-0.1-0.3 0-0.2-0.1-0.3 0-0.2 0-0.3 0-0.2 0-0.4v-17q0-0.2 0-0.3 0-0.2 0-0.3 0.1-0.2 0.1-0.3 0.1-0.2 0.1-0.3 0.1-0.2 0.2-0.3 0-0.2 0.1-0.3 0.1-0.1 0.2-0.3 0.1-0.1 0.2-0.2 0.2-0.1 0.3-0.2 0.1-0.1 0.2-0.2 0.2-0.1 0.3-0.2 0.2-0.1 0.3-0.1 0.2-0.1 0.3-0.1 0.2-0.1 0.3-0.1 0.2 0 0.3-0.1 0.2 0 0.4 0h27.6q0.1 0 0.3 0 0.1 0.1 0.3 0.1 0.2 0 0.3 0.1 0.2 0 0.3 0.1 0.2 0 0.3 0.1 0.2 0.1 0.3 0.2 0.1 0.1 0.2 0.2 0.2 0.1 0.3 0.2 0.1 0.1 0.2 0.2 0.1 0.2 0.2 0.3 0.1 0.1 0.2 0.3 0 0.1 0.1 0.3 0.1 0.1 0.1 0.3 0.1 0.1 0.1 0.3 0 0.1 0 0.3 0 0.1 0 0.3v9.2q0 0 0 0.1 0 0.1 0 0.1 0 0.1-0.1 0.1 0 0.1 0 0.1-0.1 0.1-0.1 0.1-0.1 0.1-0.2 0.1 0 0-0.1 0 0 0-0.1 0-0.1 0-0.1 0-0.1 0-0.2 0 0 0-0.1-0.1 0 0-0.1-0.1 0 0-0.1-0.1 0 0 0-0.1 0 0-0.1-0.1 0-0.1 0-0.1v-2h-31.5v9.8q0 0.1 0 0.2 0 0.1 0 0.2 0.1 0.1 0.1 0.2 0 0.1 0 0.2 0.1 0.1 0.1 0.2 0.1 0.1 0.1 0.1 0.1 0.1 0.1 0.2 0.1 0.1 0.2 0.1 0 0.1 0.1 0.2 0.1 0 0.2 0.1 0.1 0 0.1 0.1 0.1 0 0.2 0.1 0.1 0 0.2 0 0.1 0 0.2 0.1 0.1 0 0.2 0 0.1 0 0.2 0h15.7q0.1 0 0.2 0zm-8-9.2q0 0 0.1 0 0 0.1 0.1 0.1 0.1 0 0.1 0 0.1 0.1 0.1 0.1 0.1 0.1 0.1 0.1 0 0.1 0.1 0.1 0 0.1 0 0.2 0 0 0 0.1v5.2q0 0.1 0 0.2 0 0 0 0.1-0.1 0-0.1 0.1 0 0-0.1 0.1 0 0-0.1 0.1 0 0-0.1 0-0.1 0.1-0.1 0.1-0.1 0-0.1 0h-6.6q-0.1 0-0.1 0-0.1 0-0.2-0.1 0 0-0.1 0 0-0.1-0.1-0.1 0-0.1-0.1-0.1 0-0.1 0-0.1-0.1-0.1-0.1-0.1 0-0.1 0-0.2v-5.2q0-0.1 0-0.1 0-0.1 0.1-0.2 0 0 0-0.1 0.1 0 0.1-0.1 0.1 0 0.1-0.1 0.1 0 0.1 0 0.1 0 0.2-0.1 0 0 0.1 0zm-5.9 5.3h5.2v-4h-5.2zm-4-9.1h31.6v-4h-31.6zm1.8-7.8q-0.1 0-0.2 0-0.1 0-0.2 0.1-0.1 0-0.2 0 0 0.1-0.1 0.1-0.1 0.1-0.2 0.1-0.1 0.1-0.2 0.1 0 0.1-0.1 0.2-0.1 0-0.1 0.1-0.1 0.1-0.1 0.2-0.1 0-0.1 0.1-0.1 0.1-0.1 0.2-0.1 0.1-0.1 0.2 0 0.1 0 0.2-0.1 0.1-0.1 0.2 0 0 0 0.1v0.7h31.6v-0.7q0-0.1 0-0.1-0.1-0.1-0.1-0.2 0-0.1 0-0.2-0.1-0.1-0.1-0.2 0-0.1-0.1-0.2 0-0.1-0.1-0.1 0-0.1-0.1-0.2 0-0.1-0.1-0.1-0.1-0.1-0.2-0.2 0 0-0.1-0.1-0.1 0-0.2-0.1-0.1 0-0.2-0.1 0 0-0.1 0-0.1-0.1-0.2-0.1-0.1 0-0.2 0-0.1 0-0.2 0h-27.6q-0.1 0-0.2 0zm35.8 14.4q0.1 0 0.1 0 0.1 0.1 0.1 0.1 0.1 0 0.1 0.1 0.1 0 0.1 0.1 0.1 0 0.1 0.1 0 0.1 0 0.1 0 0.1 0 0.1v6.6c0 8.1-8.9 11.1-9 11.1q-0.2 0.1-0.4 0c-0.1 0-9-3-9-11.1v-6.6q0 0 0-0.1 0.1 0 0.1-0.1 0-0.1 0-0.1 0.1-0.1 0.1-0.1 0.1-0.1 0.1-0.1 0.1 0 0.1-0.1 0.1 0 0.2 0 0 0 0.1 0 1.1 0 2.1-0.2 1.1-0.2 2.1-0.5 1.1-0.3 2.1-0.8 0.9-0.4 1.8-1 0.1-0.1 0.2-0.1 0.1 0 0.2 0 0.1 0 0.2 0 0.1 0 0.2 0.1 0.9 0.6 1.9 1 1 0.5 2 0.8 1.1 0.3 2.1 0.5 1.1 0.2 2.2 0.2 0 0 0.1 0zm-0.8 1.3q-1-0.1-2.1-0.3-1-0.1-2-0.5-1-0.3-1.9-0.7-1-0.4-1.9-1-0.9 0.6-1.8 1-1 0.4-2 0.7-0.9 0.4-2 0.5-1 0.2-2 0.3v5.9c0 6.5 6.6 9.3 7.8 9.8 1.3-0.5 7.9-3.3 7.9-9.8zm-9.2 8.9l5.5-5.4q0-0.1 0.1-0.1 0 0 0.1-0.1 0 0 0.1 0 0.1 0 0.1 0 0.1 0 0.2 0 0 0 0.1 0 0 0.1 0.1 0.1 0 0 0.1 0.1 0 0 0.1 0.1 0 0 0 0.1 0.1 0.1 0.1 0.1 0 0.1 0 0.1 0 0.1 0 0.2 0 0-0.1 0.1 0 0.1 0 0.1-0.1 0.1-0.1 0.1l-5.9 5.9q-0.1 0-0.1 0.1-0.1 0-0.1 0-0.1 0.1-0.2 0.1 0 0-0.1 0 0 0-0.1 0-0.1 0-0.1-0.1-0.1 0-0.1 0-0.1-0.1-0.1-0.1l-3.3-3.3q-0.1 0-0.1-0.1 0 0-0.1-0.1 0 0 0-0.1 0-0.1 0-0.1 0-0.1 0-0.2 0 0 0-0.1 0.1 0 0.1-0.1 0-0.1 0.1-0.1 0 0 0.1-0.1 0 0 0.1 0 0-0.1 0.1-0.1 0.1 0 0.1 0 0.1 0 0.2 0 0 0 0.1 0.1 0 0 0.1 0 0.1 0.1 0.1 0.1z"/></g></svg>