<svg version="1.2" xmlns="http://www.w3.org/2000/svg" viewBox="0 0 40 40" width="40" height="40"><style>.a{fill:#222}</style><path fill-rule="evenodd" class="a" d="m20.7 2q0.5 0.1 1 0.1 0.5 0.1 1 0.2 0.5 0 1 0.2 0.5 0.1 1 0.2 0.5 0.2 1 0.3 0.5 0.2 0.9 0.4 0.5 0.2 1 0.4 0.4 0.3 0.9 0.5 0.4 0.3 0.8 0.5 0.5 0.3 0.9 0.6 0.4 0.3 0.8 0.6 0.4 0.4 0.7 0.7 0.4 0.4 0.8 0.7 0.3 0.4 0.6 0.8 0.4 0.4 0.7 0.8 0.3 0.4 0.6 0.8 0.3 0.4 0.5 0.8 0.3 0.5 0.5 0.9 0.2 0.5 0.5 0.9 0.2 0.5 0.3 1 0.2 0.5 0.4 0.9 0.1 0.5 0.3 1 0.1 0.5 0.2 1 0.1 0.5 0.1 1 0.1 0.5 0.1 1 0.1 0.5 0.1 1 0 0.5 0 1.1 0 0.5-0.1 1 0 0.5-0.1 1-0.1 0.5-0.2 1-0.1 0.5-0.2 1-0.2 0.4-0.3 0.9-0.2 0.5-0.4 1-0.2 0.4-0.4 0.9-0.2 0.5-0.5 0.9-0.2 0.5-0.5 0.9-0.3 0.4-0.6 0.8-0.2 0.4-0.6 0.8-0.3 0.4-0.6 0.8-0.4 0.4-0.7 0.8-0.4 0.3-0.8 0.6-0.3 0.4-0.7 0.7-0.4 0.3-0.9 0.6-0.4 0.3-0.8 0.6-0.4 0.2-0.9 0.5-0.4 0.2-0.9 0.4-0.5 0.2-0.9 0.4-0.5 0.2-1 0.4-0.5 0.1-1 0.3-0.5 0.1-1 0.2-0.5 0.1-1 0.2-0.5 0.1-1 0.1-0.5 0.1-1 0.1-0.5 0-1 0-0.5 0-1-0.1-0.5 0-1-0.1-0.5-0.1-1-0.2-0.5 0-1-0.2-0.5-0.1-1-0.3-0.5-0.1-1-0.3-0.4-0.2-0.9-0.4-0.5-0.2-0.9-0.4-0.5-0.3-0.9-0.5l-7.5 2.5q-0.1 0-0.3 0 0 0-0.1 0 0 0-0.1 0 0 0 0-0.1-0.1 0-0.1 0-0.1 0-0.1 0-0.1-0.1-0.1-0.1 0 0-0.1-0.1 0 0 0-0.1-0.1 0-0.1 0 0-0.1 0-0.1-0.1-0.1-0.1-0.1 0-0.1 0-0.1 0-0.1 0-0.1 0-0.1 0-0.1 0-0.1 0-0.1 0-0.1 0-0.1l2.5-7.5q-0.3-0.5-0.5-1-0.3-0.5-0.5-1-0.3-0.6-0.5-1.1-0.2-0.6-0.3-1.1-0.2-0.6-0.3-1.2-0.1-0.5-0.2-1.1-0.1-0.6-0.1-1.2-0.1-0.5-0.1-1.1 0-0.6 0-1.2 0.1-0.6 0.1-1.2 0.1-0.5 0.2-1.1 0.1-0.6 0.3-1.1 0.1-0.6 0.3-1.2 0.2-0.5 0.4-1.1 0.2-0.5 0.4-1 0.3-0.5 0.6-1.1 0.3-0.5 0.6-0.9 0.3-0.5 0.7-1 0.3-0.5 0.7-0.9 0.4-0.4 0.8-0.9 0.4-0.4 0.8-0.8 0.5-0.3 0.9-0.7 0.5-0.4 1-0.7 0.5-0.3 1-0.6 0.5-0.3 1-0.6 0.5-0.2 1.1-0.4 0.5-0.3 1.1-0.5 0.5-0.1 1.1-0.3 0.5-0.1 1.1-0.3 0.6-0.1 1.2-0.1 0.5-0.1 1.1-0.2 0.6 0 1.2 0 0.5 0 1 0zm-0.1 33.6q0.4 0 0.9-0.1 0.4 0 0.8-0.1 0.5-0.1 0.9-0.2 0.4-0.1 0.8-0.2 0.5-0.1 0.9-0.2 0.4-0.2 0.8-0.3 0.4-0.2 0.8-0.4 0.4-0.2 0.8-0.4 0.4-0.2 0.8-0.4 0.3-0.3 0.7-0.5 0.4-0.3 0.7-0.5 0.3-0.3 0.7-0.6 0.3-0.3 0.6-0.6 0.3-0.3 0.6-0.6 0.3-0.3 0.6-0.7 0.3-0.3 0.6-0.6 0.2-0.4 0.5-0.8 0.2-0.3 0.4-0.7 0.3-0.4 0.5-0.8 0.2-0.4 0.3-0.8 0.2-0.4 0.4-0.8 0.1-0.4 0.3-0.8 0.1-0.4 0.2-0.9 0.1-0.4 0.2-0.8 0.1-0.4 0.1-0.9 0.1-0.4 0.1-0.8 0.1-0.5 0.1-0.9 0-0.5 0-0.9 0-0.4 0-0.9-0.1-0.4-0.1-0.8-0.1-0.5-0.2-0.9-0.1-0.4-0.2-0.9-0.1-0.4-0.2-0.8-0.1-0.4-0.3-0.8-0.1-0.5-0.3-0.9-0.2-0.4-0.4-0.8-0.2-0.3-0.4-0.7-0.2-0.4-0.4-0.8-0.3-0.3-0.5-0.7-0.3-0.4-0.6-0.7-0.2-0.3-0.5-0.7-0.3-0.3-0.6-0.6-0.4-0.3-0.7-0.6-0.3-0.3-0.7-0.6-0.3-0.2-0.7-0.5-0.3-0.2-0.7-0.5-0.4-0.2-0.8-0.4-0.3-0.2-0.7-0.4-0.4-0.2-0.8-0.4-0.4-0.1-0.9-0.3-0.4-0.1-0.8-0.3-0.4-0.1-0.8-0.2-0.5-0.1-0.9-0.2-0.4 0-0.9-0.1-0.4 0-0.9-0.1-0.4 0-0.8 0-0.5 0-0.9 0-0.5 0-0.9 0.1-0.4 0-0.9 0.1-0.4 0.1-0.8 0.2-0.5 0-0.9 0.2-0.4 0.1-0.8 0.2-0.4 0.2-0.8 0.3-0.5 0.2-0.9 0.4-0.4 0.1-0.7 0.3-0.4 0.2-0.8 0.5-0.4 0.2-0.8 0.4-0.3 0.3-0.7 0.6-0.3 0.2-0.7 0.5-0.3 0.3-0.6 0.6-0.3 0.3-0.6 0.6-0.3 0.3-0.6 0.7-0.3 0.3-0.6 0.6-0.2 0.4-0.5 0.8-0.2 0.3-0.4 0.7-0.3 0.4-0.5 0.8-0.2 0.4-0.4 0.8-0.1 0.4-0.3 0.8-0.2 0.4-0.3 0.8-0.1 0.4-0.2 0.8-0.2 0.5-0.3 0.9 0 0.4-0.1 0.8-0.1 0.5-0.1 0.9-0.1 0.5-0.1 0.9 0 0.4 0 0.9 0 0.4 0 0.8 0.1 0.5 0.1 0.9 0.1 0.5 0.2 0.9 0 0.4 0.1 0.8 0.1 0.5 0.3 0.9 0.1 0.4 0.2 0.8 0.2 0.4 0.4 0.8 0.1 0.4 0.3 0.8 0.2 0.4 0.4 0.8 0.2 0.4 0.5 0.8 0.1 0.1 0.1 0.3 0 0.2 0 0.4l-2.1 6.2 6.2-2.1q0.2 0 0.3 0 0.2 0 0.5 0.1 0.9 0.6 1.9 1.1 1.1 0.5 2.1 0.8 1.1 0.3 2.2 0.5 1.2 0.1 2.3 0.1 0.4 0 0.9 0zm-0.1-6.7q0 0.1 0 0.2 0 0 0 0.1-0.1 0.1-0.1 0.2 0 0-0.1 0.1-0.1 0-0.1 0.1-0.1 0-0.2 0.1-0.1 0-0.1 0-0.1 0-0.2 0-0.1 0-0.2 0 0 0-0.1 0-0.1-0.1-0.2-0.1 0-0.1-0.1-0.1-0.1-0.1-0.1-0.1-0.1-0.1-0.1-0.2 0-0.1 0-0.1 0-0.1 0-0.2 0-0.1 0-0.2 0-0.1 0-0.1 0-0.1 0.1-0.2 0 0 0.1-0.1 0.1-0.1 0.1-0.1 0.1-0.1 0.2-0.1 0.1 0 0.1 0 0.1 0 0.2 0 0.1 0 0.2 0 0 0 0.1 0 0.1 0 0.2 0.1 0 0 0.1 0.1 0.1 0.1 0.1 0.1 0 0.1 0.1 0.2 0 0 0 0.1 0 0.1 0 0.2zm5-13.7q0 0.3 0.1 0.5 0 0.2 0 0.4 0 0.3 0 0.5 0 0.2-0.1 0.5 0 0.2 0 0.4-0.1 0.2-0.2 0.5 0 0.2-0.1 0.4-0.1 0.2-0.2 0.4-0.1 0.2-0.2 0.4-0.1 0.2-0.2 0.4-0.2 0.2-0.3 0.4-0.2 0.2-0.3 0.3-0.2 0.2-0.3 0.3-0.2 0.2-0.4 0.3-0.2 0.2-0.4 0.3-0.2 0.1-0.4 0.2-0.2 0.2-0.4 0.3-0.2 0.1-0.4 0.3-0.1 0.1-0.3 0.3-0.2 0.2-0.3 0.4-0.1 0.2-0.2 0.4-0.1 0.3-0.2 0.5-0.1 0.2-0.1 0.5-0.1 0.2-0.1 0.4 0 0.1 0 0.2 0 0.1 0 0.2-0.1 0.1-0.1 0.1 0 0.1-0.1 0.2-0.1 0-0.1 0.1-0.1 0-0.2 0.1-0.1 0-0.1 0-0.1 0.1-0.2 0.1-0.1 0-0.2 0 0-0.1-0.1-0.1-0.1 0-0.2 0 0-0.1-0.1-0.1-0.1-0.1-0.1-0.2 0 0-0.1-0.1 0-0.1 0-0.2 0 0 0-0.1v-0.2q0-0.3 0-0.7 0.1-0.3 0.2-0.7 0.1-0.3 0.2-0.6 0.2-0.3 0.4-0.6 0.1-0.3 0.4-0.6 0.2-0.3 0.5-0.5 0.2-0.3 0.5-0.5 0.3-0.2 0.6-0.3 0.2-0.1 0.3-0.2 0.2-0.1 0.3-0.2 0.2-0.2 0.3-0.3 0.2-0.1 0.3-0.3 0.1-0.1 0.2-0.2 0.1-0.2 0.2-0.3 0.1-0.2 0.2-0.4 0.1-0.1 0.1-0.3 0.1-0.2 0.1-0.4 0.1-0.1 0.1-0.3 0.1-0.2 0.1-0.4 0-0.2 0-0.3 0-0.2 0-0.4 0-0.2 0-0.4-0.1-0.2-0.1-0.3-0.1-0.2-0.1-0.4-0.1-0.2-0.2-0.3 0-0.2-0.1-0.4-0.1-0.1-0.2-0.3-0.1-0.1-0.2-0.3-0.2-0.1-0.3-0.2-0.1-0.2-0.3-0.3-0.1-0.1-0.2-0.2-0.2-0.1-0.4-0.2-0.1-0.1-0.3-0.2-0.2-0.1-0.3-0.1-0.2-0.1-0.4-0.2-0.2 0-0.3 0-0.2-0.1-0.4-0.1-0.2 0-0.4 0-0.2 0-0.3 0-0.2 0-0.4 0-0.2 0.1-0.4 0.1-0.1 0.1-0.3 0.1-0.2 0.1-0.4 0.2-0.1 0-0.3 0.1-0.2 0.1-0.3 0.2-0.2 0.1-0.3 0.3-0.1 0.1-0.3 0.2-0.1 0.1-0.2 0.3-0.1 0.1-0.2 0.3-0.2 0.1-0.2 0.3-0.1 0.1-0.2 0.3-0.1 0.2-0.2 0.3 0 0.2-0.1 0.4 0 0.2-0.1 0.4 0 0.1 0 0.3 0 0.2 0 0.4 0 0.1 0 0.2 0 0-0.1 0.1 0 0.1-0.1 0.2 0 0-0.1 0.1 0 0-0.1 0.1-0.1 0-0.1 0.1-0.1 0-0.2 0-0.1 0-0.2 0 0 0-0.1 0-0.1 0-0.2 0-0.1-0.1-0.1-0.1-0.1-0.1-0.2-0.1 0-0.1-0.1-0.1 0-0.1 0-0.2-0.1-0.1-0.1-0.1 0-0.1 0-0.2 0-0.3 0-0.6 0-0.2 0.1-0.5 0-0.3 0.1-0.5 0.1-0.3 0.2-0.5 0.1-0.3 0.2-0.5 0.1-0.3 0.3-0.5 0.1-0.2 0.3-0.5 0.2-0.2 0.3-0.4 0.2-0.2 0.4-0.4 0.2-0.2 0.4-0.3 0.3-0.2 0.5-0.3 0.2-0.2 0.5-0.3 0.2-0.1 0.5-0.2 0.2-0.1 0.5-0.2 0.3-0.1 0.5-0.1 0.3-0.1 0.6-0.1 0.2 0 0.5 0 0.3 0 0.6 0 0.2 0.1 0.5 0.1 0.3 0.1 0.5 0.1 0.3 0.1 0.5 0.2 0.3 0.1 0.5 0.2 0.3 0.1 0.5 0.3 0.2 0.1 0.5 0.3 0.2 0.2 0.4 0.3 0.2 0.2 0.4 0.4 0.2 0.2 0.3 0.5 0.2 0.2 0.3 0.4 0.2 0.2 0.3 0.5 0.1 0.2 0.2 0.5 0.1 0.2 0.2 0.5 0.1 0.3 0.1 0.5z"/></svg>